# xmcd CD database file
#
# Track frame offsets:
#	150
#	18754
#	40484
#	60104
#	74219
#	95267
#	113976
#	141301
#	157358
#	183856
#	209424
#	222747
#
# Disc length: 3148 seconds
#
# Revision: 0
# Processed by: cddbd v1.4PL0 Copyright (c) Steve Scherf et al.
# Submitted via: CDex 1.50beta9
#
DISCID=b90c4a0c
DTITLE=Jazz Trio 57 plus - Jazz Trio 57 plus
DYEAR=1900
DGENRE=Jazz
TTITLE0=I Thoght About You
TTITLE1=Love Came On Stealthy Fingers
TTITLE2=It Had To Be You
TTITLE3=Moonlight In The Dark
TTITLE4=For Sentimental Reasons
TTITLE5=Rainy Days And Mondays
TTITLE6=Save Your Love For Me
TTITLE7=Moon Glow
TTITLE8=I Believe
TTITLE9=My Foolish Heart
TTITLE10=O Holy Night
TTITLE11=In The Upper Room
EXTD=
EXTT0=
EXTT1=
EXTT2=
EXTT3=
EXTT4=
EXTT5=
EXTT6=
EXTT7=
EXTT8=
EXTT9=
EXTT10=
EXTT11=
PLAYORDER=
